<svg width="14" height="11" viewBox="0 0 14 11" fill="none" xmlns="http://www.w3.org/2000/svg">
<path d="M12.6875 0.5C13.0521 0.5 13.362 0.627604 13.6172 0.882812C13.8724 1.13802 14 1.44792 14 1.8125V9.6875C14 10.0521 13.8724 10.362 13.6172 10.6172C13.362 10.8724 13.0521 11 12.6875 11H1.3125C0.947917 11 0.638021 10.8724 0.382812 10.6172C0.127604 10.362 0 10.0521 0 9.6875V1.8125C0 1.44792 0.127604 1.13802 0.382812 0.882812C0.638021 0.627604 0.947917 0.5 1.3125 0.5H12.6875ZM1.3125 1.375C1.1849 1.375 1.07552 1.42057 0.984375 1.51172C0.911458 1.58464 0.875 1.6849 0.875 1.8125V2.93359C1.51302 3.48047 2.88932 4.59245 5.00391 6.26953C5.00391 6.26953 5.13151 6.37891 5.38672 6.59766C5.64193 6.79818 5.83333 6.94401 5.96094 7.03516C6.08854 7.1263 6.2526 7.22656 6.45312 7.33594C6.67188 7.44531 6.85417 7.5 7 7.5C7.1276 7.5 7.26432 7.47266 7.41016 7.41797C7.55599 7.36328 7.70182 7.28125 7.84766 7.17188C8.01172 7.0625 8.14844 6.96224 8.25781 6.87109C8.38542 6.77995 8.53125 6.67057 8.69531 6.54297C8.85938 6.39714 8.95964 6.30599 8.99609 6.26953C11.1107 4.59245 12.487 3.48047 13.125 2.93359V1.8125C13.125 1.6849 13.0794 1.58464 12.9883 1.51172C12.9154 1.42057 12.8151 1.375 12.6875 1.375H1.3125ZM12.6875 10.125C12.8151 10.125 12.9154 10.0885 12.9883 10.0156C13.0794 9.92448 13.125 9.8151 13.125 9.6875V4.08203C12.487 4.59245 11.293 5.54948 9.54297 6.95312C9.50651 6.97135 9.37891 7.07161 9.16016 7.25391C8.95964 7.4362 8.79557 7.57292 8.66797 7.66406C8.54036 7.75521 8.3763 7.86458 8.17578 7.99219C7.97526 8.11979 7.77474 8.22005 7.57422 8.29297C7.3737 8.34766 7.18229 8.375 7 8.375C6.83594 8.375 6.66276 8.34766 6.48047 8.29297C6.31641 8.23828 6.16146 8.17448 6.01562 8.10156C5.88802 8.02865 5.73307 7.9375 5.55078 7.82812C5.38672 7.70052 5.25 7.60026 5.14062 7.52734C5.03125 7.4362 4.90365 7.32682 4.75781 7.19922C4.61198 7.07161 4.51172 6.98958 4.45703 6.95312C2.70703 5.54948 1.51302 4.59245 0.875 4.08203V9.6875C0.875 9.8151 0.911458 9.92448 0.984375 10.0156C1.07552 10.0885 1.1849 10.125 1.3125 10.125H12.6875Z" fill="black"/>
</svg>
