<svg width="18" height="21" viewBox="0 0 18 21" fill="none" xmlns="http://www.w3.org/2000/svg">
<path d="M8.14062 18.8594C8.40104 19.1198 8.70052 19.25 9.03906 19.25C9.3776 19.25 9.66406 19.1198 9.89844 18.8594C10.1589 18.625 10.2891 18.3385 10.2891 18H11.5391C11.5391 18.6771 11.2917 19.263 10.7969 19.7578C10.3021 20.2526 9.71615 20.5 9.03906 20.5C8.36198 20.5 7.77604 20.2526 7.28125 19.7578C6.78646 19.263 6.53906 18.6771 6.53906 18H7.78906C7.78906 18.3385 7.90625 18.625 8.14062 18.8594ZM17.2031 13.5859C17.8021 14.1589 17.9583 14.8229 17.6719 15.5781C17.3594 16.3594 16.7734 16.75 15.9141 16.75H2.16406C1.30469 16.75 0.71875 16.3594 0.40625 15.5781C0.119792 14.8229 0.276042 14.1589 0.875 13.5859C1.52604 12.9609 2.00781 12.2578 2.32031 11.4766C2.63281 10.6693 2.78906 9.43229 2.78906 7.76562C2.78906 6.22917 3.32292 4.88802 4.39062 3.74219C5.48438 2.59635 6.82552 1.95833 8.41406 1.82812V1.125C8.41406 0.942708 8.46615 0.799479 8.57031 0.695312C8.70052 0.565104 8.85677 0.5 9.03906 0.5C9.22135 0.5 9.36458 0.565104 9.46875 0.695312C9.59896 0.799479 9.66406 0.942708 9.66406 1.125V1.82812C11.2526 1.95833 12.5807 2.59635 13.6484 3.74219C14.7422 4.88802 15.2891 6.22917 15.2891 7.76562C15.2891 9.43229 15.4453 10.6693 15.7578 11.4766C16.0703 12.2578 16.5521 12.9609 17.2031 13.5859ZM15.9141 15.5C16.2005 15.5 16.3958 15.3828 16.5 15.1484C16.6042 14.888 16.5521 14.6667 16.3438 14.4844C15.5625 13.7292 14.9766 12.8828 14.5859 11.9453C14.2214 10.9818 14.0391 9.58854 14.0391 7.76562C14.0391 6.4375 13.5443 5.31771 12.5547 4.40625C11.5911 3.46875 10.4193 3 9.03906 3C7.65885 3 6.47396 3.46875 5.48438 4.40625C4.52083 5.31771 4.03906 6.4375 4.03906 7.76562C4.03906 9.58854 3.84375 10.9818 3.45312 11.9453C3.08854 12.8828 2.51562 13.7292 1.73438 14.4844C1.52604 14.6667 1.47396 14.888 1.57812 15.1484C1.68229 15.3828 1.8776 15.5 2.16406 15.5H15.9141Z" fill="#666666"/>
</svg>
