<svg width="32" height="33" viewBox="0 0 32 33" fill="none" xmlns="http://www.w3.org/2000/svg">
                                                    <rect x="0.5" y="0.875" width="31" height="31" rx="15.5" stroke="#565656"></rect>
                                                    <path d="M23.4667 16.1083C23.4667 17.8919 23.4667 19.6755 23.4667 21.459C23.4667 22.8886 22.5 23.8417 21.084 23.8417C17.5169 23.8417 13.9634 23.8417 10.3962 23.8417C8.96667 23.8417 8 22.875 8 21.459C8 17.8919 8 14.3384 8 10.7712C8 9.34167 8.96667 8.375 10.3826 8.375C13.9498 8.375 17.5033 8.375 21.0704 8.375C22.5 8.375 23.453 9.34167 23.453 10.7576C23.4667 12.5412 23.4667 14.3248 23.4667 16.1083ZM19.8042 16.1219C19.7906 13.8619 17.9526 12.0511 15.6925 12.0647C13.4732 12.0783 11.6624 13.9027 11.6624 16.1356C11.6624 18.3957 13.5005 20.2201 15.7606 20.2201C17.9934 20.2065 19.8178 18.3684 19.8042 16.1219ZM20.7164 12.0647C21.2066 12.0647 21.615 11.6562 21.615 11.1525C21.615 10.6487 21.2066 10.2539 20.7164 10.2539C20.2263 10.2539 19.8178 10.6623 19.8178 11.1661C19.8178 11.6562 20.2263 12.0647 20.7164 12.0647Z" fill="#565656"></path>
                                                    <path d="M12.5625 16.1489C12.5625 14.4061 13.9785 12.9766 15.7212 12.9766C17.4775 12.9766 18.9071 14.4061 18.9071 16.1625C18.8935 17.8916 17.4775 19.3075 15.7348 19.3075C13.9921 19.3075 12.5625 17.8916 12.5625 16.1489Z" fill="#565656"></path>
</svg>