<svg width="8" height="15" viewBox="0 0 8 15" fill="none" xmlns="http://www.w3.org/2000/svg">
<path d="M5.71875 7.83203C6.22917 7.99609 6.64844 8.3151 6.97656 8.78906C7.30469 9.26302 7.46875 9.79167 7.46875 10.375C7.46875 11.1042 7.23177 11.724 6.75781 12.2344C6.28385 12.7448 5.70964 13 5.03516 13H4.40625V14.5312C4.40625 14.6771 4.33333 14.75 4.1875 14.75H3.75C3.60417 14.75 3.53125 14.6771 3.53125 14.5312V13H3.01172C2.15495 13 1.39844 12.6901 0.742188 12.0703C0.632812 11.9609 0.632812 11.8516 0.742188 11.7422L1.07031 11.4414C1.17969 11.3503 1.27995 11.3594 1.37109 11.4688C1.84505 11.9062 2.39193 12.125 3.01172 12.125H5.03516C5.47266 12.125 5.83724 11.9518 6.12891 11.6055C6.4388 11.2591 6.59375 10.849 6.59375 10.375C6.59375 9.97396 6.48438 9.61849 6.26562 9.30859C6.0651 8.9987 5.79167 8.78906 5.44531 8.67969L2.21875 7.66797C1.70833 7.50391 1.28906 7.1849 0.960938 6.71094C0.632812 6.23698 0.46875 5.70833 0.46875 5.125C0.46875 4.39583 0.705729 3.77604 1.17969 3.26562C1.65365 2.75521 2.22786 2.5 2.90234 2.5H3.53125V0.96875C3.53125 0.822917 3.60417 0.75 3.75 0.75H4.1875C4.33333 0.75 4.40625 0.822917 4.40625 0.96875V2.5H4.92578C5.78255 2.5 6.53906 2.8099 7.19531 3.42969C7.30469 3.53906 7.30469 3.64844 7.19531 3.75781L6.86719 4.05859C6.75781 4.14974 6.65755 4.14062 6.56641 4.03125C6.09245 3.59375 5.54557 3.375 4.92578 3.375H2.90234C2.46484 3.375 2.09115 3.54818 1.78125 3.89453C1.48958 4.24089 1.34375 4.65104 1.34375 5.125C1.34375 5.52604 1.44401 5.88151 1.64453 6.19141C1.86328 6.5013 2.14583 6.71094 2.49219 6.82031L5.71875 7.83203Z" fill="black"/>
</svg>
