<svg width="24" height="24" viewBox="0 0 28 28" fill="none" xmlns="http://www.w3.org/2000/svg">
                                        <g clip-path="url(#clip0_6916_25865)">
                                            <path d="M24.3098 19.2745C24.4273 19.1155 24.5 18.93 24.5 18.734C24.4944 17.0013 24.5168 15.2633 24.4608 13.5306C24.4273 12.4496 24.1811 11.4058 23.7838 10.399C23.6047 9.92212 23.3865 9.45583 23.1291 9.00013C22.8157 8.42787 22.4464 7.88209 22.0324 7.37341C22.01 7.34691 21.9876 7.31512 21.9596 7.27803L21.9428 7.29923C20.488 5.52943 18.7198 4.33191 16.5879 3.80733C16.1011 3.67486 15.5975 3.58478 15.0827 3.54769C14.7078 3.5159 14.3441 3.5 13.9916 3.5C13.6335 3.5 13.2698 3.5159 12.9005 3.54239C12.3857 3.58478 11.8821 3.67486 11.3953 3.80203C9.26899 4.32661 7.5008 5.51884 6.05156 7.27803L6.04596 7.27273C6.01799 7.30982 5.9956 7.34162 5.97322 7.36811C5.77738 7.61185 5.58713 7.8609 5.41367 8.11524C5.36331 8.18942 5.31295 8.2636 5.25699 8.33779C4.58553 9.32866 4.13229 10.3831 3.85252 11.4906C3.69025 12.0946 3.58393 12.7093 3.55036 13.3398C3.52238 13.679 3.5056 14.0234 3.5056 14.3678C3.5056 14.7334 3.5056 15.0937 3.5056 15.4593C3.4944 16.5456 3.5056 17.6371 3.5 18.7234C3.5 18.8559 3.53357 18.983 3.58953 19.0996C3.60072 19.1314 3.61191 19.1579 3.6231 19.1897C3.66227 19.2745 3.71823 19.3381 3.79097 19.3804C3.98681 19.5765 4.26099 19.7037 4.54636 19.709C4.82614 19.7143 5.10592 19.709 5.40248 19.709C5.40248 20.3077 5.40807 20.88 5.40248 21.447C5.39688 22.4855 6.21383 23.2645 7.17626 23.3015C7.69105 23.3227 8.20024 23.328 8.71503 23.3174C9.05076 23.3068 9.21303 23.1267 9.21303 22.7876C9.21303 20.1382 9.21303 17.4835 9.21303 14.8341C9.21303 14.5745 9.1235 14.4155 8.93885 14.3413C8.91647 14.3307 8.89408 14.3254 8.8717 14.3201C8.80456 14.3042 8.72622 14.2936 8.63669 14.2936C8.22262 14.2883 7.80296 14.2671 7.38889 14.2989C7.22662 14.3095 7.05316 14.336 6.89089 14.3678C6.8797 14.3678 6.8741 14.3678 6.86291 14.3731C6.45444 14.442 6.13549 14.6221 5.90048 14.8871C5.66547 15.1308 5.51439 15.4435 5.43605 15.7932C5.43046 15.719 5.42486 15.6501 5.41926 15.5759C5.39688 14.691 5.39688 13.8273 5.50879 12.9795C5.58153 12.492 5.68225 12.0098 5.82774 11.5435C5.97322 11.0826 6.14668 10.6428 6.34812 10.2136C6.59992 9.69427 6.91327 9.19089 7.28817 8.7034L7.27698 8.68751C7.69105 8.14703 8.17226 7.64365 8.72622 7.18265C9.33613 6.68457 9.99081 6.27126 10.6958 5.95863C10.7462 5.93744 10.791 5.91624 10.8413 5.89505C10.8469 5.88975 10.8581 5.88975 10.8637 5.88445C11.0484 5.81027 11.2274 5.74138 11.4121 5.6778C11.4233 5.6725 11.4289 5.6725 11.44 5.6672C11.5072 5.64601 11.5799 5.62481 11.6471 5.60362C11.6918 5.59302 11.7366 5.57712 11.7814 5.56652C11.8038 5.56123 11.8261 5.55593 11.8541 5.54533C12.1059 5.47644 12.3633 5.42346 12.6319 5.37577C13.046 5.30688 13.4544 5.26979 13.8629 5.2592C13.9021 5.2592 13.9468 5.2592 13.9916 5.2592C14.0364 5.2592 14.0755 5.2592 14.1203 5.2592C14.5232 5.26449 14.9373 5.30688 15.3513 5.37577C15.6143 5.41816 15.8717 5.47644 16.1291 5.54533C16.1515 5.55063 16.1739 5.55593 16.2018 5.56652C16.2466 5.57712 16.2914 5.59302 16.3361 5.60362C16.4033 5.62481 16.476 5.64601 16.5432 5.6672C16.5544 5.6725 16.56 5.6725 16.5711 5.6778C16.7558 5.74138 16.9404 5.80497 17.1195 5.88445C17.1251 5.88975 17.1363 5.88975 17.1419 5.89505C17.1922 5.91624 17.237 5.93744 17.2818 5.95863C17.9868 6.27126 18.6415 6.67927 19.2514 7.18265C19.811 7.64365 20.2978 8.15233 20.7118 8.6981C20.7174 8.7034 20.723 8.714 20.7286 8.7193C21.3945 9.60949 21.8813 10.6057 22.2002 11.6972C22.5863 13.006 22.5975 14.3466 22.5584 15.7402C22.4464 15.2792 22.2058 14.8924 21.803 14.6327C21.6351 14.5162 21.4392 14.4367 21.2154 14.3837C21.0196 14.336 20.8181 14.3042 20.6167 14.2883C20.2026 14.2565 19.783 14.2777 19.3689 14.283C19.285 14.283 19.2178 14.2936 19.1507 14.3095C19.0779 14.3148 19.0108 14.3466 18.966 14.389C18.8485 14.4738 18.7926 14.6168 18.7926 14.8288C18.7926 17.4782 18.7926 20.1329 18.7926 22.7823C18.7926 23.1214 18.9492 23.3015 19.2906 23.3121C19.8054 23.3227 20.3201 23.3174 20.8293 23.2962C21.7918 23.2592 22.6087 22.4802 22.6031 21.4417C22.5975 20.8694 22.6031 20.3024 22.6031 19.7037C22.8997 19.7037 23.1795 19.709 23.4592 19.7037C23.7782 19.6984 24.0803 19.5394 24.2818 19.3063C24.2818 19.3063 24.293 19.2904 24.3098 19.2745Z" fill="#565656"></path>
                                            <path d="M11.304 21.5211C10.9962 21.5211 10.75 21.2879 10.75 20.9965V16.6833C10.75 16.3918 10.9962 16.1587 11.304 16.1587C11.6117 16.1587 11.8579 16.3918 11.8579 16.6833V20.9965C11.8579 21.2826 11.6117 21.5211 11.304 21.5211Z" fill="#565656"></path>
                                            <path d="M13.9954 22.8033C13.6876 22.8033 13.4414 22.4589 13.4414 22.035V15.634C13.4414 15.2101 13.6876 14.8657 13.9954 14.8657C14.3031 14.8657 14.5493 15.2101 14.5493 15.634V22.035C14.5549 22.4589 14.3031 22.8033 13.9954 22.8033Z" fill="#565656"></path>
                                            <path d="M16.6907 21.5211C16.3829 21.5211 16.1367 21.2879 16.1367 20.9965V16.6833C16.1367 16.3918 16.3829 16.1587 16.6907 16.1587C16.9984 16.1587 17.2446 16.3918 17.2446 16.6833V20.9965C17.2502 21.2826 16.9984 21.5211 16.6907 21.5211Z" fill="#565656"></path>
                                        </g>
                                        <defs>
                                            <clipPath id="clip0_6916_25865">
                                                <rect width="21" height="19.8333" fill="white" transform="translate(3.5 3.5)"></rect>
                                            </clipPath>
                                        </defs>
                                    </svg>