<svg width="32" height="33" viewBox="0 0 32 33" fill="none" xmlns="http://www.w3.org/2000/svg">
                                                    <rect x="0.5" y="0.875" width="31" height="31" rx="15.5" stroke="#565656"></rect>
                                                    <path fill-rule="evenodd" clip-rule="evenodd" d="M9.00921 22.0205C8.6954 21.9276 8.40907 21.7624 8.17438 21.5389C7.9397 21.3153 7.76354 21.04 7.66078 20.736C7.07356 19.1649 6.89956 12.6045 8.03051 11.3095C8.40691 10.8882 8.93833 10.6288 9.50944 10.5876C12.5434 10.2691 21.9172 10.3116 22.9938 10.6938C23.2966 10.7897 23.5732 10.9512 23.803 11.1663C24.0327 11.3814 24.2096 11.6445 24.3205 11.9358C24.962 13.5599 24.9838 19.4621 24.2335 21.0226C24.0344 21.4288 23.7012 21.7578 23.2874 21.9568C22.1564 22.5088 10.5099 22.4981 9.00921 22.0205ZM13.8266 18.942L19.2638 16.182L13.8266 13.4007V18.942Z" fill="#565656"></path>
</svg>