<svg width="20" height="21" viewBox="0 0 20 21" fill="none" xmlns="http://www.w3.org/2000/svg">
<path d="M18.8672 12.1797C19.2839 12.4401 19.4271 12.8047 19.2969 13.2734C18.8542 14.7318 18.099 16.0208 17.0312 17.1406C16.6927 17.5052 16.3151 17.5703 15.8984 17.3359L14.6094 16.5938C14.1146 16.9844 13.5677 17.2969 12.9688 17.5312V19.0156C12.9688 19.5104 12.7214 19.8099 12.2266 19.9141C10.7422 20.2786 9.25781 20.2786 7.77344 19.9141C7.27865 19.8099 7.03125 19.5104 7.03125 19.0156V17.5312C6.43229 17.2969 5.88542 16.9844 5.39062 16.5938L4.10156 17.3359C3.6849 17.5703 3.30729 17.5052 2.96875 17.1406C1.90104 16.0208 1.14583 14.7318 0.703125 13.2734C0.572917 12.8047 0.716146 12.4401 1.13281 12.1797L2.42188 11.4375C2.36979 11.125 2.34375 10.8125 2.34375 10.5C2.34375 10.1875 2.36979 9.875 2.42188 9.5625L1.13281 8.82031C0.716146 8.5599 0.572917 8.19531 0.703125 7.72656C1.14583 6.26823 1.90104 4.97917 2.96875 3.85938C3.30729 3.49479 3.6849 3.42969 4.10156 3.66406L5.39062 4.40625C5.88542 4.01562 6.43229 3.70312 7.03125 3.46875V1.98438C7.03125 1.48958 7.27865 1.1901 7.77344 1.08594C9.25781 0.721354 10.7422 0.721354 12.2266 1.08594C12.7214 1.1901 12.9688 1.48958 12.9688 1.98438V3.46875C13.5677 3.70312 14.1146 4.01562 14.6094 4.40625L15.8984 3.66406C16.3151 3.42969 16.6927 3.49479 17.0312 3.85938C18.099 4.97917 18.8542 6.26823 19.2969 7.72656C19.4271 8.19531 19.2839 8.5599 18.8672 8.82031L17.5781 9.5625C17.6302 9.875 17.6562 10.1875 17.6562 10.5C17.6562 10.8125 17.6302 11.125 17.5781 11.4375L18.8672 12.1797ZM16.2891 16.125C17.0703 15.2396 17.6432 14.25 18.0078 13.1562L16.2109 12.1016C16.3411 11.3984 16.4062 10.8646 16.4062 10.5C16.4062 10.1354 16.3411 9.60156 16.2109 8.89844L18.0078 7.84375C17.6432 6.75 17.0703 5.76042 16.2891 4.875L14.4922 5.92969C13.9453 5.46094 13.5026 5.13542 13.1641 4.95312C12.8516 4.77083 12.3698 4.5625 11.7188 4.32812V2.21875C11.1458 2.11458 10.5729 2.0625 10 2.0625C9.42708 2.0625 8.85417 2.11458 8.28125 2.21875V4.32812C7.63021 4.5625 7.13542 4.77083 6.79688 4.95312C6.48438 5.13542 6.05469 5.46094 5.50781 5.92969L3.71094 4.875C2.92969 5.76042 2.35677 6.75 1.99219 7.84375L3.78906 8.89844C3.65885 9.60156 3.59375 10.1354 3.59375 10.5C3.59375 10.8646 3.65885 11.3984 3.78906 12.1016L1.99219 13.1562C2.35677 14.25 2.92969 15.2396 3.71094 16.125L5.50781 15.0703C6.05469 15.5391 6.48438 15.8646 6.79688 16.0469C7.13542 16.2292 7.63021 16.4375 8.28125 16.6719V18.7812C8.85417 18.8854 9.42708 18.9375 10 18.9375C10.5729 18.9375 11.1458 18.8854 11.7188 18.7812V16.6719C12.3698 16.4375 12.8516 16.2292 13.1641 16.0469C13.5026 15.8385 13.9453 15.513 14.4922 15.0703L16.2891 16.125ZM7.34375 7.84375C8.07292 7.11458 8.95833 6.75 10 6.75C11.0417 6.75 11.9271 7.11458 12.6562 7.84375C13.3854 8.57292 13.75 9.45833 13.75 10.5C13.75 11.5417 13.3854 12.4271 12.6562 13.1562C11.9271 13.8854 11.0417 14.25 10 14.25C8.95833 14.25 8.07292 13.8854 7.34375 13.1562C6.61458 12.4271 6.25 11.5417 6.25 10.5C6.25 9.45833 6.61458 8.57292 7.34375 7.84375ZM8.24219 12.2578C8.73698 12.7526 9.32292 13 10 13C10.6771 13 11.263 12.7526 11.7578 12.2578C12.2526 11.763 12.5 11.1771 12.5 10.5C12.5 9.82292 12.2526 9.23698 11.7578 8.74219C11.263 8.2474 10.6771 8 10 8C9.32292 8 8.73698 8.2474 8.24219 8.74219C7.7474 9.23698 7.5 9.82292 7.5 10.5C7.5 11.1771 7.7474 11.763 8.24219 12.2578Z" fill="#666666"/>
</svg>
