<svg width="21" height="19" viewBox="0 0 21 19" fill="none" xmlns="http://www.w3.org/2000/svg">
<path d="M20.3828 8.44531C20.4609 8.52344 20.5 8.60156 20.5 8.67969C20.5 8.75781 20.474 8.82292 20.4219 8.875L20.0312 9.38281C19.9792 9.46094 19.901 9.5 19.7969 9.5C19.7188 9.5 19.6536 9.47396 19.6016 9.42188L18 8.13281V17.625C18 17.7812 17.9349 17.9245 17.8047 18.0547C17.7005 18.1849 17.5573 18.25 17.375 18.25H12.375C12.1927 18.25 12.0365 18.1849 11.9062 18.0547C11.8021 17.9505 11.75 17.8073 11.75 17.625V12.625H9.25V17.625C9.25 17.7812 9.1849 17.9245 9.05469 18.0547C8.95052 18.1849 8.80729 18.25 8.625 18.25H3.625C3.44271 18.25 3.28646 18.1849 3.15625 18.0547C3.05208 17.9245 3 17.7812 3 17.625V8.13281L1.39844 9.42188C1.34635 9.47396 1.28125 9.5 1.20312 9.5C1.09896 9.5 1.02083 9.46094 0.96875 9.38281L0.578125 8.875C0.526042 8.82292 0.5 8.75781 0.5 8.67969C0.5 8.60156 0.539062 8.52344 0.617188 8.44531L9.71875 1.02344C9.95312 0.841146 10.2135 0.75 10.5 0.75C10.7865 0.75 11.0469 0.841146 11.2812 1.02344L16.75 5.47656V3.48438C16.75 3.32812 16.8281 3.25 16.9844 3.25H17.7656C17.9219 3.25 18 3.32812 18 3.48438V6.49219L20.3828 8.44531ZM16.75 17V7.11719L10.5 2L4.25 7.11719V17H8V12C8 11.8177 8.05208 11.6745 8.15625 11.5703C8.28646 11.4401 8.44271 11.375 8.625 11.375H12.375C12.4531 11.375 12.5312 11.388 12.6094 11.4141C12.6875 11.4401 12.7526 11.4922 12.8047 11.5703C12.8568 11.6224 12.8958 11.6875 12.9219 11.7656C12.974 11.8438 13 11.9219 13 12V17H16.75Z" fill="#666666"/>
</svg>
