<svg width="25" height="25" viewBox="0 0 25 25" fill="none" xmlns="http://www.w3.org/2000/svg">
<path d="M23.8125 22.5938C24.0938 22.8438 24.0938 23.1094 23.8125 23.3906L23.3906 23.8125C23.1094 24.0938 22.8438 24.0938 22.5938 23.8125L16.5469 17.8125C16.4219 17.6875 16.3594 17.5469 16.3594 17.3906V16.9219C14.4844 18.6406 12.2812 19.5 9.75 19.5C7.0625 19.5 4.76562 18.5469 2.85938 16.6406C0.953125 14.7344 0 12.4375 0 9.75C0 7.0625 0.953125 4.76563 2.85938 2.85938C4.76562 0.953125 7.0625 0 9.75 0C12.4375 0 14.7344 0.953125 16.6406 2.85938C18.5469 4.76563 19.5 7.0625 19.5 9.75C19.5 12.2812 18.6406 14.4844 16.9219 16.3594H17.3906C17.5469 16.3594 17.6875 16.4219 17.8125 16.5469L23.8125 22.5938ZM3.89062 15.6094C5.51562 17.2031 7.46875 18 9.75 18C12.0312 18 13.9688 17.2031 15.5625 15.6094C17.1875 13.9844 18 12.0312 18 9.75C18 7.46875 17.1875 5.53125 15.5625 3.9375C13.9688 2.3125 12.0312 1.5 9.75 1.5C7.46875 1.5 5.51562 2.3125 3.89062 3.9375C2.29688 5.53125 1.5 7.46875 1.5 9.75C1.5 12.0312 2.29688 13.9844 3.89062 15.6094Z" fill="white"/>
</svg>
