<svg width="33" height="33" viewBox="0 0 33 33" fill="none" xmlns="http://www.w3.org/2000/svg">
<circle cx="16.5" cy="16.5" r="16" fill="white" stroke="white"/>
<circle opacity="0.4" cx="16.578" cy="11.7838" r="3.78379" stroke="#333333" stroke-width="1.5" stroke-linecap="round" stroke-linejoin="round"/>
<path fill-rule="evenodd" clip-rule="evenodd" d="M10.5762 20.8301C10.5752 20.5641 10.6347 20.3013 10.7502 20.0617C11.1126 19.3368 12.1346 18.9527 12.9827 18.7787C13.5944 18.6482 14.2145 18.561 14.8384 18.5178C15.9935 18.4163 17.1553 18.4163 18.3105 18.5178C18.9343 18.5615 19.5544 18.6487 20.1661 18.7787C21.0142 18.9527 22.0363 19.3006 22.3987 20.0617C22.631 20.5502 22.631 21.1172 22.3987 21.6057C22.0363 22.3668 21.0142 22.7147 20.1661 22.8814C19.5552 23.0174 18.9349 23.107 18.3105 23.1496C17.3703 23.2293 16.4257 23.2439 15.4835 23.1931C15.266 23.1931 15.0558 23.1931 14.8384 23.1496C14.2163 23.1075 13.5984 23.0179 12.99 22.8814C12.1346 22.7147 11.1198 22.3668 10.7502 21.6057C10.6352 21.3633 10.5758 21.0983 10.5762 20.8301Z" stroke="#333333" stroke-width="1.5" stroke-linecap="round" stroke-linejoin="round"/>
</svg>
