<svg width="24" height="24" viewBox="0 0 24 24" fill="none" xmlns="http://www.w3.org/2000/svg"><g clip-path="url(#clip0_5451_71420)"><path d="M19.9297 13.3994C19.7085 16.1297 18.2812 18.1276 15.9761 19.5425C14.8129 20.2535 13.5497 20.744 12.208 20.9858C11.9226 21.0355 11.5943 20.9573 11.3017 20.8862C9.11081 20.3246 7.16968 19.3363 5.71384 17.5588C4.58627 16.1652 4.0439 14.5583 4.01536 12.788C3.98681 10.7545 4.00822 8.71393 4.00108 6.68047C4.00108 6.4174 4.07245 6.26809 4.36504 6.22543C6.94131 5.8486 9.41054 5.11627 11.787 4.04266C11.9083 3.98578 12.0939 3.98578 12.2152 4.04266C14.5774 5.10916 17.0323 5.84149 19.6014 6.21832C19.9012 6.26098 20.0011 6.39607 19.9939 6.68758C19.9868 7.75408 20.0225 12.2334 19.9297 13.3994ZM11.9939 17.6156C14.82 17.6156 17.1251 15.3262 17.1322 12.5178C17.1394 9.688 14.8414 7.37725 12.0011 7.37725C9.17503 7.37725 6.86995 9.66667 6.86281 12.4751C6.85568 15.3049 9.16076 17.6085 11.9939 17.6156Z" fill="#5580DF"></path><path d="M10.8582 11.359C10.8582 10.8827 10.8654 10.4632 10.8582 10.0366C10.8511 9.7664 10.9796 9.64553 11.2507 9.65264C11.7646 9.65975 12.2713 9.65264 12.7851 9.65264C13.0349 9.65264 13.1562 9.77351 13.149 10.0224C13.149 10.449 13.149 10.8756 13.149 11.359C13.5701 11.359 13.9769 11.359 14.3837 11.359C14.7976 11.359 14.8547 11.4159 14.8618 11.8354C14.8618 12.2976 14.8547 12.7597 14.8618 13.2219C14.8689 13.5276 14.7333 13.6485 14.4336 13.6413C14.0197 13.6342 13.6058 13.6413 13.149 13.6413C13.149 14.0751 13.1348 14.4803 13.1562 14.8927C13.1705 15.234 13.0277 15.362 12.6923 15.3549C12.2213 15.3406 11.7432 15.3477 11.265 15.3549C10.9796 15.362 10.8582 15.2269 10.8654 14.9496C10.8725 14.5372 10.8654 14.1248 10.8654 13.6485C10.4443 13.6485 10.0375 13.6485 9.62362 13.6485C9.2097 13.6485 9.15261 13.5845 9.15261 13.1721C9.15261 12.7099 9.15975 12.2478 9.15261 11.7856C9.14547 11.4799 9.28107 11.359 9.5808 11.3661C9.98758 11.3661 10.4015 11.359 10.8582 11.359Z" fill="#5580DF"></path></g><defs><clipPath id="clip0_5451_71420"><rect width="16" height="17" fill="white" transform="translate(4 4)"></rect></clipPath></defs></svg>