<svg width="14" height="15" viewBox="0 0 14 15" fill="none" xmlns="http://www.w3.org/2000/svg">
<path d="M12.2773 10.7578C12.6784 10.6667 12.9792 10.8034 13.1797 11.168C13.3984 11.5143 13.3802 11.8424 13.125 12.1523C12.4688 12.9727 11.6667 13.6107 10.7188 14.0664C9.77083 14.5221 8.75911 14.75 7.68359 14.75C5.7513 14.75 4.10156 14.0664 2.73438 12.6992C1.36719 11.332 0.683594 9.68229 0.683594 7.75C0.683594 5.81771 1.36719 4.16797 2.73438 2.80078C4.10156 1.43359 5.7513 0.75 7.68359 0.75C8.12109 0.75 8.54948 0.786458 8.96875 0.859375C9.36979 0.932292 9.59766 1.17839 9.65234 1.59766C9.72526 1.9987 9.58854 2.29948 9.24219 2.5C8.76823 2.75521 8.35807 3.08333 8.01172 3.48438C7.68359 3.88542 7.42839 4.33203 7.24609 4.82422C7.0638 5.31641 6.97266 5.82682 6.97266 6.35547C6.97266 7.75911 7.51042 8.90755 8.58594 9.80078C9.66146 10.694 10.8919 11.013 12.2773 10.7578ZM7.68359 13.875C8.63151 13.875 9.51562 13.6745 10.3359 13.2734C11.1745 12.8724 11.8763 12.3164 12.4414 11.6055C10.8008 11.9154 9.33333 11.5417 8.03906 10.4844C6.74479 9.40885 6.09766 8.03255 6.09766 6.35547C6.09766 5.71745 6.20703 5.09766 6.42578 4.49609C6.66276 3.89453 6.98177 3.36589 7.38281 2.91016C7.78385 2.4362 8.25781 2.04427 8.80469 1.73438C8.4401 1.66146 8.06641 1.625 7.68359 1.625C5.98828 1.625 4.53906 2.22656 3.33594 3.42969C2.15104 4.61458 1.55859 6.05469 1.55859 7.75C1.55859 9.44531 2.15104 10.8945 3.33594 12.0977C4.53906 13.2826 5.98828 13.875 7.68359 13.875Z" fill="black"/>
</svg>
