<svg width="32" height="32" viewBox="0 0 32 32" fill="none" xmlns="http://www.w3.org/2000/svg">   <path d="M27.5861 24.7566C27.5516 24.8809 27.5196 25.0058 27.4815 25.1288C27.1449 26.2049 26.0707 26.8614 24.927 26.6903C23.8651 26.5322 23.0296 25.5663 23.029 24.4693C23.0253 19.5221 23.0271 14.575 23.0277 9.62841C23.0277 9.56935 23.0351 9.50967 23.04 9.44015C23.0893 9.43584 23.1262 9.4303 23.1631 9.4303C24.3905 9.42969 25.6173 9.42969 26.8447 9.42969C27.2243 9.42969 27.4532 9.63702 27.5867 9.97356C27.5861 14.901 27.5861 19.8285 27.5861 24.7566Z" fill="#5580DF"></path><path d="M22.3343 26.6538C22.2094 26.6538 22.1411 26.6538 22.0728 26.6538C17.2149 26.6538 12.3563 26.6557 7.49835 26.6526C5.80828 26.6514 4.43321 25.5421 4.0819 23.8982C4.03084 23.6601 4.00992 23.4115 4.00931 23.1679C4.00623 17.2585 4.00685 11.3491 4.00746 5.43967C4.00746 4.91856 4.2794 4.6417 4.80112 4.64109C10.15 4.64047 15.499 4.64047 20.8485 4.64109C21.3776 4.64109 21.6452 4.91918 21.6452 5.45997C21.6452 11.7305 21.6495 18.0005 21.6403 24.271C21.6391 25.1225 21.7978 25.9119 22.3343 26.6538ZM15.4251 20.3907C16.2539 20.3907 17.0832 20.3919 17.9119 20.3901C18.4263 20.3895 18.697 20.1224 18.697 19.6142C18.6982 17.9562 18.6982 16.2987 18.697 14.6406C18.6964 14.1349 18.4207 13.8525 17.9169 13.8519C16.2588 13.8494 14.6013 13.8494 12.9432 13.8519C12.4344 13.8525 12.1588 14.1312 12.1582 14.6357C12.157 16.2938 12.157 17.9512 12.1582 19.6093C12.1582 20.1206 12.4264 20.3895 12.9383 20.3901C13.7677 20.3919 14.5964 20.3907 15.4251 20.3907ZM12.8399 9.33785C14.5041 9.33785 16.1677 9.33785 17.832 9.33785C17.9163 9.33785 18.0012 9.34092 18.0848 9.33231C18.5161 9.28863 18.796 8.85181 18.6588 8.44082C18.5506 8.11598 18.2989 7.95663 17.8843 7.95663C14.5256 7.95601 11.1664 7.95601 7.80781 7.95663C7.73891 7.95663 7.66938 7.95663 7.60171 7.96832C7.34946 8.01015 7.16181 8.14612 7.05845 8.38053C6.85296 8.84873 7.1938 9.33539 7.73275 9.33662C9.43513 9.34031 11.1375 9.33785 12.8399 9.33785ZM12.8522 12.2855C14.4857 12.2855 16.1191 12.2855 17.7526 12.2855C17.8523 12.2855 17.9519 12.2886 18.0516 12.2824C18.39 12.2615 18.657 12.0049 18.6945 11.6702C18.7314 11.3435 18.5173 11.0273 18.1906 10.9399C18.0959 10.9147 17.9944 10.9049 17.8959 10.9049C14.5293 10.903 11.1627 10.903 7.79674 10.9049C7.69092 10.9049 7.56233 10.8975 7.48358 10.951C7.32608 11.0587 7.14212 11.1811 7.06399 11.3429C6.84188 11.8025 7.20118 12.2824 7.74506 12.2836C9.44682 12.2873 11.1492 12.2855 12.8522 12.2855ZM12.8307 23.3383C13.8286 23.3383 14.8265 23.3383 15.8238 23.3383C16.5455 23.3383 17.2666 23.3414 17.9882 23.3365C18.374 23.334 18.6582 23.0768 18.6939 22.7157C18.729 22.3631 18.4817 22.042 18.115 21.9737C18.0178 21.9559 17.9162 21.9571 17.8172 21.9571C14.6548 21.9565 11.4925 21.9565 8.33015 21.9565C8.12282 21.9565 7.91548 21.9515 7.70876 21.9589C7.40668 21.9694 7.17719 22.1072 7.05599 22.3884C6.85419 22.8584 7.19811 23.3358 7.74137 23.3371C9.43821 23.3402 11.1344 23.3383 12.8307 23.3383ZM8.79405 16.3381C9.13858 16.3381 9.48312 16.3381 9.82765 16.3381C9.84304 16.3381 9.85842 16.3381 9.8738 16.3381C10.2885 16.3288 10.5875 16.0465 10.5918 15.6595C10.5961 15.2872 10.3075 14.9704 9.91194 14.963C9.16935 14.9482 8.42675 14.9489 7.68415 14.9624C7.27871 14.9698 6.98585 15.2971 7.00062 15.6779C7.01538 16.0551 7.3107 16.3313 7.7143 16.3368C8.07483 16.3418 8.43413 16.3381 8.79405 16.3381ZM8.7842 19.2851C9.14412 19.2851 9.50404 19.2882 9.86395 19.2845C10.2829 19.2802 10.5819 19.0027 10.5918 18.6163C10.6022 18.2263 10.2983 17.9125 9.87626 17.9069C9.15704 17.8977 8.43721 17.8977 7.71737 17.9069C7.29593 17.9125 6.99139 18.2256 7.00123 18.6157C7.01046 19.0015 7.31008 19.2802 7.72783 19.2845C8.07975 19.2882 8.43228 19.2851 8.7842 19.2851Z" fill="#5580DF"></path><path d="M17.3041 15.2422C17.3041 16.5041 17.3041 17.7438 17.3041 18.9952C16.0515 18.9952 14.8111 18.9952 13.5554 18.9952C13.5554 17.7456 13.5554 16.4997 13.5554 15.2422C14.805 15.2422 16.0447 15.2422 17.3041 15.2422Z" fill="#5580DF"></path></svg>