<svg width="24" height="24" viewBox="0 0 28 28" fill="none" xmlns="http://www.w3.org/2000/svg">
                                        <g clip-path="url(#clip0_6916_25947)">
                                            <path fill-rule="evenodd" clip-rule="evenodd" d="M5.83151 10.0333C5.57378 10.0333 5.36484 10.2422 5.36484 10.5V21C5.36484 21.2577 5.57378 21.4666 5.83151 21.4666H18.6648C18.9226 21.4666 19.1315 21.2577 19.1315 21V14C19.1315 13.6134 19.4449 13.3 19.8315 13.3C20.2181 13.3 20.5315 13.6134 20.5315 14V21C20.5315 22.0309 19.6958 22.8666 18.6648 22.8666H5.83151C4.80058 22.8666 3.96484 22.0309 3.96484 21V10.5C3.96484 9.46904 4.80058 8.6333 5.83151 8.6333H10.4982C10.8848 8.6333 11.1982 8.9467 11.1982 9.3333C11.1982 9.7199 10.8848 10.0333 10.4982 10.0333H5.83151Z" fill="#565656"></path>
                                            <path fill-rule="evenodd" clip-rule="evenodd" d="M3.79297 10.4997C3.79297 9.37209 4.70705 8.45801 5.83464 8.45801H10.5013C10.9846 8.45801 11.3763 8.84976 11.3763 9.33301C11.3763 9.81626 10.9846 10.208 10.5013 10.208H5.83464C5.67355 10.208 5.54297 10.3386 5.54297 10.4997V20.9997C5.54297 21.1608 5.67355 21.2913 5.83464 21.2913H18.668C18.8291 21.2913 18.9596 21.1608 18.9596 20.9997V13.9997C18.9596 13.5164 19.3514 13.1247 19.8346 13.1247C20.3179 13.1247 20.7096 13.5164 20.7096 13.9997V20.9997C20.7096 22.1273 19.7956 23.0413 18.668 23.0413H5.83464C4.70705 23.0413 3.79297 22.1273 3.79297 20.9997V10.4997ZM5.83464 8.80801C4.90035 8.80801 4.14297 9.56539 4.14297 10.4997V20.9997C4.14297 21.934 4.90035 22.6913 5.83464 22.6913H18.668C19.6023 22.6913 20.3596 21.934 20.3596 20.9997V13.9997C20.3596 13.7097 20.1246 13.4747 19.8346 13.4747C19.5447 13.4747 19.3096 13.7097 19.3096 13.9997V20.9997C19.3096 21.3541 19.0224 21.6413 18.668 21.6413H5.83464C5.48025 21.6413 5.19297 21.3541 5.19297 20.9997V10.4997C5.19297 10.1453 5.48025 9.85801 5.83464 9.85801H10.5013C10.7913 9.85801 11.0263 9.62296 11.0263 9.33301C11.0263 9.04306 10.7913 8.80801 10.5013 8.80801H5.83464Z" fill="#565656"></path>
                                            <path d="M11.668 13.9998C11.9605 11.9893 12.4969 10.2547 13.8036 8.85517C15.1201 7.45566 16.8169 6.92346 18.6892 6.7362C18.6892 6.06601 18.6892 5.43525 18.6892 4.6665C20.6591 5.9576 22.5412 7.19941 24.5013 8.48065C22.5705 9.79146 20.6884 11.0826 18.7185 12.4229C18.7185 11.5951 18.7185 10.8559 18.7185 10.0674C15.5687 9.88016 13.3648 11.3388 11.668 13.9998Z" fill="#565656"></path>
                                        </g>
                                        <defs>
                                            <clipPath id="clip0_6916_25947">
                                                <rect width="21" height="18.6667" fill="white" transform="translate(3.5 4.6665)"></rect>
                                            </clipPath>
                                        </defs>
                                    </svg>