<svg width="32" height="33" viewBox="0 0 32 33" fill="none" xmlns="http://www.w3.org/2000/svg"><g clip-path="url(#clip0_888_4787)"><path d="M29.2344 17.3778C28.9276 19.7572 27.9623 21.8557 26.4286 23.7083C25.373 24.9815 24.1009 26.0087 22.6213 26.7902C22.5672 26.8165 22.5041 26.8429 22.4499 26.8692V24.6654C22.7025 24.5161 22.9371 24.3581 23.1717 24.1912C25.2828 22.6547 26.6361 20.6177 27.1413 18.1066C27.6916 15.3935 27.2947 12.7946 25.8061 10.4151C24.3535 8.09717 22.2605 6.56942 19.5629 5.89334C15.9542 4.99776 12.6342 5.61238 9.72913 7.91278C7.70823 9.51956 6.52637 11.6531 6.12039 14.1731C5.74147 16.4735 6.04821 18.6773 7.1579 20.7494C8.03302 22.3913 9.27803 23.6732 10.8478 24.6566V26.8341C10.2073 26.4829 9.57576 26.1229 8.99836 25.6839C6.47224 23.7347 4.84831 21.2235 4.24385 18.1241C4.17167 17.7729 4.11754 17.4129 4.08145 17.0617C4.04536 16.7017 4.02732 16.3418 4.00928 16.0257C4.06341 12.777 5.19114 9.99369 7.41953 7.6406C9.32314 5.62994 11.6598 4.33047 14.4295 3.82122C17.4969 3.25929 20.3749 3.7861 23.0363 5.34897C26.0767 7.13135 28.0796 9.71272 28.9727 13.0755C29.3426 14.4804 29.4238 15.9203 29.2344 17.3778Z" fill="#ED1C24"></path><path d="M24.2272 20.2139C23.8303 20.8987 23.3431 21.5309 22.7386 22.0577C22.6484 22.1367 22.5492 22.1982 22.4499 22.2421V19.4588C22.7386 19.0285 22.9642 18.572 23.1266 18.0715C24.2904 14.5155 22.5041 10.4591 18.3721 9.50203C17.8127 9.37033 17.2353 9.33521 16.6579 9.25618C14.619 9.32643 12.8687 10.0025 11.5064 11.4951C10.6223 12.461 10.1081 13.6112 9.92762 14.8931C9.7562 16.1047 9.85544 17.2813 10.3246 18.4227C10.4599 18.7563 10.6313 19.0724 10.8208 19.371V22.2157C10.7035 22.1543 10.5952 22.0752 10.487 21.9787C9.87349 21.3816 9.35924 20.7055 8.95326 19.9592C8.11423 18.4139 7.73531 16.7632 7.94281 15.016C8.15031 13.2951 8.86304 11.7761 10.0178 10.4591C11.344 8.94888 12.995 7.95672 14.9979 7.56161C17.4879 7.06992 19.7614 7.63185 21.7913 9.09814C23.5777 10.3888 24.7415 12.0922 25.2196 14.217C25.7249 16.3506 25.3099 18.3349 24.2272 20.2139Z" fill="#ED1C24"></path><path d="M19.2291 21.5044C19.2291 21.5044 19.2291 23.0936 19.2291 24.3931C19.2291 25.0516 19.5629 25.2448 19.8967 25.2799C20.2125 25.3063 20.5192 25.1921 20.5192 25.1921V29.3188C20.5192 29.3188 20.032 31.6104 17.3526 31.6104C17.1992 31.6104 17.0639 31.6016 16.9195 31.5929C15.1151 31.426 13.7619 29.8983 13.7619 28.1335V21.4254H11.4072L11.9665 20.7142L13.0311 19.3621L19.2923 11.4072V16.2627H20.5282V21.5044H19.2291Z" fill="#ED1C24"></path></g><defs><clipPath id="clip0_888_4787"><rect width="25.3333" height="28" fill="white" transform="translate(4.00024 3.60168)"></rect></clipPath></defs></svg>