<svg width="24" height="24" viewBox="0 0 28 28" fill="none" xmlns="http://www.w3.org/2000/svg">
                                        <path fill-rule="evenodd" clip-rule="evenodd" d="M8.62246 7.33628C8.09294 7.37955 7.78871 7.4602 7.55828 7.57761C7.06435 7.82928 6.66278 8.23085 6.41111 8.72478C6.2937 8.95522 6.21304 9.25944 6.16978 9.78896C6.12568 10.3287 6.125 11.022 6.125 12.0165V20.6374L7.78957 18.9728C8.17246 18.5899 8.69177 18.3748 9.23325 18.3748H17.15C18.1445 18.3748 18.8378 18.3742 19.3775 18.3301C19.9071 18.2868 20.2113 18.2061 20.4417 18.0887C20.9356 17.8371 21.3372 17.4355 21.5889 16.9416C21.7063 16.7111 21.787 16.4069 21.8302 15.8774C21.8743 15.3376 21.875 14.6444 21.875 13.6498V12.0165C21.875 11.022 21.8743 10.3287 21.8302 9.78896C21.787 9.25944 21.7063 8.95522 21.5889 8.72478C21.3372 8.23085 20.9356 7.82928 20.4417 7.57761C20.2113 7.4602 19.9071 7.37955 19.3775 7.33628C18.8378 7.29219 18.1445 7.2915 17.15 7.2915H10.85C9.85547 7.2915 9.1622 7.29219 8.62246 7.33628ZM10.8125 5.5415H17.1875C18.1358 5.5415 18.9007 5.54149 19.52 5.5921C20.1578 5.6442 20.718 5.75429 21.2362 6.01835C22.0594 6.4378 22.7287 7.10709 23.1482 7.9303C23.4122 8.44855 23.5223 9.00872 23.5744 9.64646C23.625 10.2658 23.625 11.0307 23.625 11.979V13.6873C23.625 14.6356 23.625 15.4005 23.5744 16.0199C23.5223 16.6576 23.4122 17.2178 23.1482 17.736C22.7287 18.5593 22.0594 19.2285 21.2362 19.648C20.718 19.9121 20.1578 20.0221 19.52 20.0742C18.9007 20.1249 18.1358 20.1248 17.1875 20.1248H9.23325C9.1559 20.1248 9.08171 20.1556 9.02701 20.2103L6.76495 22.4723C5.883 23.3543 4.375 22.7296 4.375 21.4824L4.375 11.979C4.37499 11.0307 4.37498 10.2659 4.42559 9.64646C4.4777 9.00872 4.58778 8.44855 4.85185 7.9303C5.27129 7.10709 5.94058 6.4378 6.76379 6.01835C7.28205 5.75429 7.84221 5.6442 8.47995 5.5921C9.09935 5.54149 9.86423 5.5415 10.8125 5.5415Z" fill="#565656"></path>
                                        <path fill-rule="evenodd" clip-rule="evenodd" d="M9.04297 11.083C9.04297 10.5998 9.43472 10.208 9.91797 10.208L18.0846 10.208C18.5679 10.208 18.9596 10.5998 18.9596 11.083C18.9596 11.5663 18.5679 11.958 18.0846 11.958L9.91797 11.958C9.43472 11.958 9.04297 11.5663 9.04297 11.083Z" fill="#565656"></path>
                                        <path fill-rule="evenodd" clip-rule="evenodd" d="M9.04297 14.583C9.04297 14.0998 9.43472 13.708 9.91797 13.708L15.7513 13.708C16.2346 13.708 16.6263 14.0998 16.6263 14.583C16.6263 15.0663 16.2346 15.458 15.7513 15.458L9.91797 15.458C9.43472 15.458 9.04297 15.0663 9.04297 14.583Z" fill="#565656"></path>
                                    </svg>