<svg width="24" height="24" viewBox="0 0 28 28" fill="none" xmlns="http://www.w3.org/2000/svg">
                                        <path d="M5.99004 22.0642C5.31056 22.0642 4.69391 21.9284 4.14009 21.6567C3.58627 21.3801 3.14647 20.9824 2.8207 20.4637C2.49492 19.9401 2.33203 19.3078 2.33203 18.5668C2.33203 17.9148 2.45303 17.3862 2.69504 16.9812C2.93704 16.5711 3.26049 16.2501 3.66539 16.0179C4.07028 15.7857 4.51706 15.6128 5.00572 15.4992C5.49904 15.3807 5.99469 15.2868 6.49266 15.2176C7.14421 15.1287 7.67244 15.062 8.07733 15.0176C8.48688 14.9682 8.78473 14.8867 8.97089 14.7731C9.1617 14.6594 9.25711 14.4618 9.25711 14.1803V14.121C9.25711 13.3899 9.06862 12.8218 8.69165 12.4168C8.31934 12.0117 7.75388 11.8092 6.99529 11.8092C6.20877 11.8092 5.59212 11.9919 5.14534 12.3575C4.69856 12.723 4.38442 13.1133 4.20292 13.5282L2.63919 12.9354C2.91843 12.2439 3.29074 11.7054 3.75614 11.3201C4.22619 10.9299 4.73812 10.6582 5.29194 10.505C5.85042 10.347 6.39958 10.2679 6.93944 10.2679C7.28383 10.2679 7.67942 10.3124 8.1262 10.4013C8.57763 10.4853 9.01278 10.6607 9.43163 10.9274C9.85514 11.1942 10.2065 11.5967 10.4857 12.1352C10.765 12.6736 10.9046 13.3948 10.9046 14.2988V21.7975H9.25711V20.2563H9.17334C9.06164 20.5032 8.87548 20.7675 8.61486 21.0491C8.35424 21.3307 8.00752 21.5702 7.5747 21.7678C7.14189 21.9654 6.61366 22.0642 5.99004 22.0642ZM6.24135 20.4934C6.8929 20.4934 7.44207 20.3575 7.88885 20.0858C8.34028 19.8141 8.68002 19.4634 8.90806 19.0337C9.14076 18.6039 9.25711 18.1519 9.25711 17.6777V16.0772C9.1873 16.1661 9.03372 16.2476 8.79637 16.3217C8.56367 16.3908 8.29374 16.4526 7.98658 16.5069C7.68407 16.5563 7.38855 16.6008 7.1 16.6403C6.81611 16.6749 6.58574 16.7045 6.40889 16.7292C5.98073 16.7885 5.58049 16.8848 5.20817 17.0182C4.84051 17.1466 4.54266 17.3418 4.31461 17.6036C4.09122 17.8604 3.97953 18.2112 3.97953 18.6558C3.97953 19.2634 4.19128 19.7228 4.61479 20.034C5.04296 20.3402 5.58514 20.4934 6.24135 20.4934Z" fill="#565656"></path>
                                        <path d="M18.8606 22.1668C17.9198 22.1668 17.0659 21.9787 16.2991 21.6025C15.5323 21.2195 14.9233 20.6689 14.4723 19.9507C14.0212 19.2257 13.7956 18.3502 13.7956 17.3243C13.7956 16.4214 13.9632 15.6896 14.2983 15.1287C14.6334 14.561 15.0812 14.1164 15.6418 13.795C16.2025 13.4735 16.8211 13.2341 17.4977 13.0768C18.1807 12.9126 18.867 12.7827 19.5565 12.6869C20.4587 12.5638 21.1901 12.4715 21.7507 12.4099C22.3177 12.3415 22.7302 12.2287 22.9879 12.0714C23.2521 11.914 23.3842 11.6404 23.3842 11.2506V11.1685C23.3842 10.1562 23.1232 9.36965 22.6013 8.80879C22.0858 8.24793 21.3028 7.9675 20.2525 7.9675C19.1634 7.9675 18.3096 8.22057 17.691 8.72671C17.0724 9.23285 16.6374 9.77319 16.3861 10.3477L14.2209 9.52696C14.6076 8.5694 15.1231 7.82386 15.7675 7.29036C16.4183 6.75002 17.1272 6.37384 17.894 6.1618C18.6673 5.94293 19.4276 5.8335 20.1751 5.8335C20.652 5.8335 21.1997 5.89505 21.8183 6.01817C22.4434 6.13444 23.0459 6.37726 23.6259 6.7466C24.2123 7.11595 24.6988 7.67339 25.0854 8.41892C25.472 9.16446 25.6654 10.1631 25.6654 11.4147V21.7975H23.3842V19.6635H23.2682C23.1136 20.0055 22.8558 20.3714 22.495 20.7613C22.1341 21.1511 21.654 21.4829 21.0547 21.7564C20.4554 22.03 19.7241 22.1668 18.8606 22.1668ZM19.2085 19.9918C20.1107 19.9918 20.8711 19.8037 21.4897 19.4275C22.1148 19.0513 22.5852 18.5657 22.9009 17.9706C23.2231 17.3756 23.3842 16.7497 23.3842 16.0931V13.877C23.2876 14.0002 23.0749 14.113 22.7463 14.2156C22.4241 14.3114 22.0503 14.3969 21.625 14.4721C21.2062 14.5405 20.797 14.6021 20.3975 14.6568C20.0044 14.7047 19.6854 14.7457 19.4405 14.7799C18.8477 14.862 18.2935 14.9953 17.778 15.18C17.2689 15.3579 16.8565 15.628 16.5408 15.9905C16.2315 16.3462 16.0768 16.8318 16.0768 17.4474C16.0768 18.2887 16.37 18.9248 16.9564 19.3557C17.5492 19.7798 18.3 19.9918 19.2085 19.9918Z" fill="#565656"></path>
                                    </svg>