<svg width="20" height="13" viewBox="0 0 20 13" fill="none" xmlns="http://www.w3.org/2000/svg">
<path d="M11.5938 12C11.7396 12 11.8125 12.0729 11.8125 12.2188V12.6562C11.8125 12.8021 11.7396 12.875 11.5938 12.875H8.53125C8.38542 12.875 8.3125 12.8021 8.3125 12.6562V12.2188C8.3125 12.0729 8.38542 12 8.53125 12H9.67969L8.44922 8.5H3.80078L2.57031 12H3.71875C3.86458 12 3.9375 12.0729 3.9375 12.2188V12.6562C3.9375 12.8021 3.86458 12.875 3.71875 12.875H0.65625C0.510417 12.875 0.4375 12.8021 0.4375 12.6562V12.2188C0.4375 12.0729 0.510417 12 0.65625 12H1.66797L5.49609 0.925781C5.56901 0.72526 5.70573 0.625 5.90625 0.625H6.34375C6.54427 0.625 6.68099 0.72526 6.75391 0.925781L10.582 12H11.5938ZM4.10156 7.625H8.14844L6.125 1.77344L4.10156 7.625ZM19.7031 12C19.7969 12 19.8438 12.0469 19.8438 12.1406V12.4219C19.8438 12.5156 19.7969 12.5625 19.7031 12.5625H17.7344C17.6406 12.5625 17.5938 12.5156 17.5938 12.4219V12.1406C17.5938 12.0469 17.6406 12 17.7344 12H18.4727L17.6816 9.75H14.6934L13.9023 12H14.6406C14.7344 12 14.7812 12.0469 14.7812 12.1406V12.4219C14.7812 12.5156 14.7344 12.5625 14.6406 12.5625H12.6719C12.5781 12.5625 12.5312 12.5156 12.5312 12.4219V12.1406C12.5312 12.0469 12.5781 12 12.6719 12H13.3223L15.7832 4.88086C15.8301 4.75195 15.918 4.6875 16.0469 4.6875H16.3281C16.457 4.6875 16.5449 4.75195 16.5918 4.88086L19.0527 12H19.7031ZM14.8867 9.1875H17.4883L16.1875 5.42578L14.8867 9.1875Z" fill="black"/>
</svg>
