<svg width="32" height="32" viewBox="0 0 32 32" fill="none" xmlns="http://www.w3.org/2000/svg"><g clip-path="url(#clip0_5065_35233)"><path d="M6.1422 8.95481C5.46379 8.95481 4.85844 8.95481 4.23222 8.95481C4.23222 8.41187 4.23222 7.93158 4.23222 7.3782C4.44096 7.3782 4.6497 7.3782 4.848 7.3782C7.66601 7.3782 10.484 7.36776 13.302 7.38864C13.636 7.38864 13.8134 7.28423 14.0013 7.00232C14.2205 6.6682 14.544 6.36541 14.878 6.14615C15.1389 5.97909 15.2224 5.81203 15.2224 5.53012C15.212 4.59042 15.2224 3.65071 15.2224 2.67969C15.7547 2.67969 16.2453 2.67969 16.788 2.67969C16.788 3.62983 16.7984 4.55909 16.7776 5.49879C16.7671 5.81203 16.861 5.97909 17.1428 6.15659C17.4664 6.36541 17.7899 6.65776 17.9778 6.98144C18.1866 7.32599 18.4057 7.39908 18.771 7.39908C21.5577 7.38864 24.334 7.38864 27.1207 7.38864C27.3294 7.38864 27.5277 7.38864 27.7678 7.38864C27.7678 7.92114 27.7678 8.40143 27.7678 8.95481C27.152 8.95481 26.5466 8.95481 25.8474 8.95481C25.9517 9.22628 26.0039 9.39334 26.077 9.57084C27.0894 12.0454 28.0913 14.5304 29.135 16.984C29.3751 17.5374 29.3751 18.049 29.2185 18.6024C28.7906 20.1686 27.4233 21.3276 25.7952 21.4529C25.0333 21.5051 24.2609 21.5051 23.499 21.4529C21.6517 21.3171 20.1487 19.824 19.9817 17.976C19.9609 17.7149 20.0235 17.4226 20.1278 17.172C21.1507 14.6243 22.1944 12.0872 23.2381 9.54996C23.3007 9.39334 23.3529 9.22628 23.4364 9.00702C23.2485 8.98614 23.1024 8.95481 22.9563 8.95481C21.516 8.95481 20.0652 8.95481 18.6249 8.94437C18.3327 8.94437 18.1866 9.04878 18.0091 9.29937C17.7691 9.64393 17.456 9.9676 17.1011 10.1973C16.8402 10.3748 16.7671 10.5419 16.7671 10.8238C16.7776 14.2485 16.7776 17.6836 16.7671 21.1083C16.7671 21.4424 16.861 21.5886 17.195 21.693C18.3849 22.0793 19.2198 22.8833 19.6582 24.0631C19.7208 24.2198 19.7521 24.3868 19.8043 24.5852C17.2472 24.5852 14.7528 24.5852 12.0913 24.5852C12.3522 24.0527 12.5401 23.5515 12.8219 23.1234C13.3125 22.3926 14.0117 21.9018 14.8571 21.6617C15.1389 21.5781 15.212 21.4529 15.212 21.1918C15.2016 17.7149 15.212 14.2276 15.1911 10.7507C15.1911 10.5732 15.0137 10.3852 14.8884 10.2391C14.5753 9.89451 14.2518 9.57084 13.9178 9.24716C13.803 9.13231 13.6673 8.97569 13.5421 8.96525C11.9243 8.95481 10.3066 8.96525 8.68884 8.96525C8.65753 8.96525 8.62621 8.99658 8.55316 9.03834C8.61578 9.2054 8.6784 9.3829 8.74102 9.54996C9.75342 12.0245 10.7554 14.5095 11.7991 16.9632C12.0391 17.5165 12.0391 18.0282 11.893 18.5815C11.4651 20.1477 10.0978 21.338 8.4801 21.4215C7.47814 21.4737 6.44487 21.4842 5.47423 21.2858C3.92954 20.9621 2.80234 19.5421 2.65622 17.9655C2.63535 17.7045 2.69797 17.4121 2.80234 17.1615C3.82517 14.6139 4.86888 12.0767 5.91258 9.53952C5.98564 9.3829 6.04826 9.2054 6.1422 8.95481ZM10.0665 16.7439C9.1585 14.5617 8.27136 12.4526 7.34246 10.2077C6.40312 12.4735 5.52641 14.5826 4.61839 16.7439C6.45531 16.7439 8.21917 16.7439 10.0665 16.7439ZM27.392 16.7439C26.484 14.5721 25.6073 12.463 24.668 10.2077C23.7286 12.4735 22.8415 14.5826 21.9439 16.7439C23.7913 16.7439 25.5551 16.7439 27.392 16.7439Z" fill="#5580DF"></path><path d="M22.998 29.3355C18.3222 29.3355 13.6673 29.3355 9.02279 29.3355C8.69925 27.4248 9.73251 26.1823 11.6216 26.1719C14.544 26.1719 17.4559 26.1719 20.3783 26.1719C22.2987 26.1823 23.2902 27.3622 22.998 29.3355Z" fill="#5580DF"></path></g><defs><clipPath id="clip0_5065_35233"><rect width="26.6667" height="26.6667" fill="white" transform="translate(2.66669 2.66797)"></rect></clipPath></defs></svg>