<svg width="25" height="25" viewBox="0 0 25 25" fill="none" xmlns="http://www.w3.org/2000/svg">
                                    <path d="M12.0131 0.5C5.38869 0.5 0 5.88331 0 12.5C0 19.1167 5.38869 24.5 12.0131 24.5C18.6376 24.5 24.0263 19.1167 24.0263 12.5C24.0263 5.88331 18.6376 0.5 12.0131 0.5ZM16.7889 12.9204L9.78122 17.4204C9.6991 17.4736 9.60426 17.5 9.51041 17.5C9.42829 17.5 9.34518 17.4795 9.2709 17.439C9.10957 17.3511 9.00985 17.1831 9.00985 17V8C9.00985 7.81691 9.10957 7.64891 9.2709 7.56102C9.42927 7.47411 9.62773 7.47945 9.78122 7.57958L16.7889 12.0796C16.9316 12.1714 17.0186 12.3301 17.0186 12.5C17.0186 12.6699 16.9316 12.8286 16.7889 12.9204Z" fill="#FF0000"></path>
                                </svg>