<svg width="24" height="24" viewBox="0 0 24 24" fill="none" xmlns="http://www.w3.org/2000/svg"><path d="M14.0063 10H4.99375C4.16875 10 3.5 10.613 3.5 11.3693V19.6307C3.5 20.387 4.16875 21 4.99375 21H14.0063C14.8313 21 15.5 20.387 15.5 19.6307V11.3693C15.5 10.613 14.8313 10 14.0063 10ZM19.925 11.0799L16.5 13.2456V17.7544L19.925 19.9172C20.5875 20.3354 21.5 19.9086 21.5 19.1781V11.819C21.5 11.0914 20.5906 10.6617 19.925 11.0799Z" fill="#ED1C24"></path><path d="M9.82023 3C11.3539 3.03371 12.7022 3.5309 13.8483 4.55056C14.3455 4.98876 14.4129 5.53652 14.0337 5.94944C13.6629 6.35393 13.1573 6.32865 12.6601 5.89888C10.9494 4.42416 8.67416 4.42416 6.95506 5.91573C6.46629 6.33708 5.94382 6.34551 5.58146 5.93258C5.2191 5.51966 5.28652 4.99719 5.76685 4.56742C6.91292 3.5309 8.26966 3.02528 9.82023 3Z" fill="#ED1C24"></path><path d="M9.8118 6.00781C10.5702 6.02467 11.236 6.27748 11.8006 6.79152C12.2388 7.18759 12.2893 7.73534 11.9438 8.13141C11.5983 8.51905 11.0843 8.52748 10.6292 8.15669C10.0562 7.68478 9.55056 7.69321 8.9691 8.16512C8.52247 8.52748 8 8.51062 7.6545 8.11455C7.31742 7.72691 7.36798 7.19601 7.78933 6.80837C8.36236 6.27748 9.03652 6.02467 9.8118 6.00781Z" fill="#ED1C24"></path></svg>