<svg width="16" height="15" viewBox="0 0 16 15" fill="none" xmlns="http://www.w3.org/2000/svg">
<path opacity="0.4" d="M6.32396 11.7472H1.00049" stroke="#333333" stroke-width="1.5" stroke-linecap="round" stroke-linejoin="round"/>
<path fill-rule="evenodd" clip-rule="evenodd" d="M14.4189 11.7473C14.4189 12.9178 13.47 13.8666 12.2995 13.8666C11.129 13.8666 10.1802 12.9178 10.1802 11.7473C10.1802 10.5759 11.129 9.62793 12.2995 9.62793C13.47 9.62793 14.4189 10.5759 14.4189 11.7473Z" stroke="#333333" stroke-width="1.5" stroke-linecap="round" stroke-linejoin="round"/>
<path opacity="0.4" d="M9.09473 3.11927H14.4191" stroke="#333333" stroke-width="1.5" stroke-linecap="round" stroke-linejoin="round"/>
<path fill-rule="evenodd" clip-rule="evenodd" d="M1 3.11935C1 4.2907 1.94886 5.23869 3.11935 5.23869C4.28984 5.23869 5.23869 4.2907 5.23869 3.11935C5.23869 1.94886 4.28984 1 3.11935 1C1.94886 1 1 1.94886 1 3.11935Z" stroke="#333333" stroke-width="1.5" stroke-linecap="round" stroke-linejoin="round"/>
</svg>
