<svg width="20" height="21" viewBox="0 0 20 21" fill="none" xmlns="http://www.w3.org/2000/svg">
<path d="M19.2578 14.2109C19.4661 14.3151 19.6354 14.4714 19.7656 14.6797C19.9219 14.888 20 15.1094 20 15.3438C20 15.4479 19.987 15.5391 19.9609 15.6172L19.0625 19.5625C19.0104 19.8229 18.8672 20.0443 18.6328 20.2266C18.3984 20.4089 18.151 20.5 17.8906 20.5H17.8516C15.4557 20.5 13.151 20.0312 10.9375 19.0938C8.72396 18.1562 6.82292 16.8932 5.23438 15.3047C3.64583 13.6901 2.36979 11.7891 1.40625 9.60156C0.46875 7.38802 0 5.07031 0 2.64844V2.60938C0 2.34896 0.0911458 2.10156 0.273438 1.86719C0.455729 1.63281 0.677083 1.48958 0.9375 1.4375L4.88281 0.539062C4.96094 0.513021 5.05208 0.5 5.15625 0.5C5.3125 0.5 5.45573 0.539062 5.58594 0.617188C5.74219 0.669271 5.88542 0.760417 6.01562 0.890625C6.14583 0.994792 6.23698 1.11198 6.28906 1.24219L8.08594 5.46094C8.16406 5.61719 8.20312 5.78646 8.20312 5.96875C8.20312 6.33333 8.04688 6.64583 7.73438 6.90625L5.625 8.625C6.19792 9.77083 7.09635 10.9557 8.32031 12.1797C9.54427 13.4036 10.7292 14.3021 11.875 14.875L13.5938 12.7656C13.8542 12.4531 14.1667 12.2969 14.5312 12.2969C14.7135 12.2969 14.8828 12.3359 15.0391 12.4141L19.2578 14.2109ZM17.8516 19.25L18.75 15.3438L14.5312 13.5469L12.2266 16.3984C10.1953 15.4609 8.56771 14.3802 7.34375 13.1562C6.11979 11.9323 5.03906 10.3047 4.10156 8.27344L6.95312 5.96875L5.15625 1.75L1.25 2.64844C1.25 4.44531 1.52344 6.1901 2.07031 7.88281C2.64323 9.57552 3.4375 11.099 4.45312 12.4531C5.49479 13.8073 6.69271 15.0052 8.04688 16.0469C9.40104 17.0625 10.9245 17.8438 12.6172 18.3906C14.3099 18.9635 16.0547 19.25 17.8516 19.25Z" fill="#666666"/>
</svg>
