<svg width="24" height="25" viewBox="0 0 24 25" fill="none" xmlns="http://www.w3.org/2000/svg">
<rect x="-0.000244141" y="0.666504" width="24" height="24" rx="12" fill="#F2F2F2"></rect> 
<g clip-path="url(#clip0_929_5596)"><path d="M15.675 5.6665C15.6829 5.67433 15.6869 5.68216 15.6948 5.68607C16.0156 5.84652 16.0869 6.08524 15.9007 6.39439C15.3067 7.38057 14.7126 8.36283 14.1186 9.349C13.976 9.58771 13.8334 9.82643 13.675 10.0886C13.7463 10.0886 13.7899 10.0886 13.8374 10.0886C14.3918 10.0886 14.9463 10.0925 15.4968 10.0886C15.6948 10.0886 15.8572 10.1512 15.9522 10.3313C16.0473 10.5152 15.9998 10.6795 15.8809 10.8361C13.5324 14.0333 11.1879 17.2266 8.84332 20.4239C8.72055 20.5922 8.57005 20.6939 8.35223 20.6548C8.16609 20.6195 8.03144 20.5021 8.00768 20.3143C7.99184 20.2008 8.01956 20.0717 8.06312 19.9621C8.73243 18.1815 9.4057 16.4009 10.079 14.6203C10.2057 14.2877 10.3285 13.9551 10.4631 13.6068C10.3918 13.6068 10.3364 13.6068 10.2849 13.6068C9.68689 13.6068 9.08887 13.6068 8.49085 13.6068C8.12649 13.6068 7.93243 13.3641 8.0156 13.0198C8.6057 10.6913 9.19184 8.36283 9.77401 6.03828C9.82154 5.85435 9.94035 5.74868 10.0988 5.6665C11.9562 5.6665 13.8176 5.6665 15.675 5.6665Z" fill="#ED1C24"></path></g>
<defs><clipPath id="clip0_929_5596"><rect width="8" height="15" fill="white" transform="translate(7.99976 5.6665)"></rect></clipPath></defs>
</svg>
