<svg width="16" height="18" viewBox="0 0 16 18" fill="none" xmlns="http://www.w3.org/2000/svg">
<path opacity="0.4" d="M0.874023 6.92342H15.1332" stroke="#200E32" stroke-width="1.5" stroke-linecap="round" stroke-linejoin="round"/>
<path opacity="0.4" fill-rule="evenodd" clip-rule="evenodd" d="M3.69629 10.0477C3.69629 9.63352 4.03208 9.29773 4.44629 9.29773H4.4537C4.86791 9.29773 5.2037 9.63352 5.2037 10.0477C5.2037 10.4619 4.86791 10.7977 4.4537 10.7977H4.44629C4.03208 10.7977 3.69629 10.4619 3.69629 10.0477ZM8.00366 9.29773C7.58945 9.29773 7.25366 9.63352 7.25366 10.0477C7.25366 10.4619 7.58945 10.7977 8.00366 10.7977H8.01107C8.42529 10.7977 8.76107 10.4619 8.76107 10.0477C8.76107 9.63352 8.42529 9.29773 8.01107 9.29773H8.00366ZM11.5536 9.29773C11.1394 9.29773 10.8036 9.63352 10.8036 10.0477C10.8036 10.4619 11.1394 10.7977 11.5536 10.7977H11.561C11.9752 10.7977 12.311 10.4619 12.311 10.0477C12.311 9.63352 11.9752 9.29773 11.561 9.29773H11.5536ZM11.5536 12.4069C11.1394 12.4069 10.8036 12.7427 10.8036 13.1569C10.8036 13.5711 11.1394 13.9069 11.5536 13.9069H11.561C11.9752 13.9069 12.311 13.5711 12.311 13.1569C12.311 12.7427 11.9752 12.4069 11.561 12.4069H11.5536ZM7.25366 13.1569C7.25366 12.7427 7.58945 12.4069 8.00366 12.4069H8.01107C8.42529 12.4069 8.76107 12.7427 8.76107 13.1569C8.76107 13.5711 8.42529 13.9069 8.01107 13.9069H8.00366C7.58945 13.9069 7.25366 13.5711 7.25366 13.1569ZM4.44629 12.4069C4.03208 12.4069 3.69629 12.7427 3.69629 13.1569C3.69629 13.5711 4.03208 13.9069 4.44629 13.9069H4.4537C4.86791 13.9069 5.2037 13.5711 5.2037 13.1569C5.2037 12.7427 4.86791 12.4069 4.4537 12.4069H4.44629Z" fill="#200E32"/>
<path d="M11.2348 1V3.63262" stroke="#200E32" stroke-width="1.5" stroke-linecap="round" stroke-linejoin="round"/>
<path d="M4.77242 1V3.63262" stroke="#200E32" stroke-width="1.5" stroke-linecap="round" stroke-linejoin="round"/>
<path fill-rule="evenodd" clip-rule="evenodd" d="M11.3904 2.26343H4.61658C2.26722 2.26343 0.799805 3.57217 0.799805 5.97785V13.2176C0.799805 15.6611 2.26722 17.0001 4.61658 17.0001H11.383C13.7398 17.0001 15.1998 15.6838 15.1998 13.2781V5.97785C15.2072 3.57217 13.7472 2.26343 11.3904 2.26343Z" stroke="#200E32" stroke-width="1.5" stroke-linecap="round" stroke-linejoin="round"/>
</svg>
