<svg width="24" height="24" viewBox="0 0 24 24" fill="none" xmlns="http://www.w3.org/2000/svg"><path d="M21.1892 18.5733C21.1633 18.6665 21.1393 18.7602 21.1107 18.8525C20.8583 19.6595 20.0527 20.1519 19.1948 20.0236C18.3984 19.905 17.7718 19.1806 17.7713 18.3578C17.7686 14.6475 17.7699 10.9371 17.7704 7.22717C17.7704 7.18287 17.7759 7.13811 17.7796 7.08597C17.8166 7.08274 17.8442 7.07859 17.8719 7.07859C18.7925 7.07813 19.7126 7.07812 20.6331 7.07812C20.9178 7.07812 21.0895 7.23363 21.1896 7.48603C21.1892 11.1816 21.1892 14.8772 21.1892 18.5733Z" fill="#ED1C24"></path><path d="M17.2504 19.9943C17.1567 19.9943 17.1055 19.9943 17.0543 19.9943C13.4108 19.9943 9.76689 19.9957 6.12342 19.9934C4.85587 19.9924 3.82457 19.1605 3.56109 17.9275C3.52279 17.749 3.50711 17.5625 3.50664 17.3798C3.50434 12.9478 3.5048 8.51571 3.50526 4.08366C3.50526 3.69283 3.70921 3.48518 4.10051 3.48472C8.1122 3.48426 12.1239 3.48426 16.136 3.48472C16.5329 3.48472 16.7336 3.69329 16.7336 4.09889C16.7336 8.8018 16.7368 13.5043 16.7299 18.2072C16.729 18.8458 16.848 19.4378 17.2504 19.9943ZM12.0685 15.2969C12.6901 15.2969 13.3121 15.2978 13.9336 15.2965C14.3194 15.296 14.5224 15.0957 14.5224 14.7146C14.5233 13.471 14.5233 12.2279 14.5224 10.9844C14.5219 10.6051 14.3152 10.3933 13.9373 10.3928C12.6938 10.391 11.4507 10.391 10.2071 10.3928C9.82549 10.3933 9.61877 10.6023 9.61831 10.9807C9.61739 12.2242 9.61739 13.4673 9.61831 14.7109C9.61831 15.0943 9.81949 15.296 10.2034 15.2965C10.8254 15.2978 11.447 15.2969 12.0685 15.2969ZM10.1296 7.00729C11.3777 7.00729 12.6255 7.00729 13.8736 7.00729C13.9369 7.00729 14.0005 7.0096 14.0633 7.00314C14.3867 6.97038 14.5967 6.64276 14.4938 6.33452C14.4126 6.09089 14.2239 5.97138 13.9129 5.97138C11.3939 5.97092 8.87448 5.97092 6.35552 5.97138C6.30384 5.97138 6.2517 5.97138 6.20094 5.98014C6.01176 6.01152 5.87102 6.1135 5.7935 6.2893C5.63938 6.64045 5.89502 7.00545 6.29923 7.00637C7.57601 7.00914 8.85279 7.00729 10.1296 7.00729ZM10.1388 9.21801C11.3639 9.21801 12.589 9.21801 13.8141 9.21801C13.8889 9.21801 13.9636 9.22032 14.0384 9.2157C14.2922 9.20002 14.4924 9.0076 14.5206 8.75658C14.5482 8.51156 14.3877 8.27438 14.1426 8.20886C14.0716 8.18994 13.9955 8.18256 13.9216 8.18256C11.3967 8.18117 8.87171 8.18117 6.34722 8.18256C6.26785 8.18256 6.17141 8.17702 6.11235 8.21717C5.99422 8.29792 5.85626 8.38974 5.79765 8.5111C5.63108 8.85579 5.90055 9.21571 6.30846 9.21663C7.58478 9.2194 8.86156 9.21801 10.1388 9.21801ZM10.1227 17.5076C10.8711 17.5076 11.6195 17.5076 12.3675 17.5076C12.9088 17.5076 13.4496 17.5099 13.9908 17.5063C14.2802 17.5044 14.4933 17.3115 14.5201 17.0407C14.5464 16.7763 14.3609 16.5354 14.0859 16.4842C14.013 16.4708 13.9369 16.4717 13.8626 16.4717C11.4908 16.4713 9.11904 16.4713 6.74728 16.4713C6.59178 16.4713 6.43627 16.4676 6.28123 16.4731C6.05467 16.4809 5.88256 16.5843 5.79165 16.7952C5.64031 17.1477 5.89825 17.5058 6.30569 17.5067C7.57832 17.509 8.85049 17.5076 10.1227 17.5076ZM7.0952 12.2575C7.3536 12.2575 7.612 12.2575 7.87041 12.2575C7.88194 12.2575 7.89348 12.2575 7.90501 12.2575C8.21602 12.2505 8.44027 12.0387 8.4435 11.7485C8.44673 11.4693 8.23032 11.2317 7.93362 11.2262C7.37667 11.2151 6.81972 11.2156 6.26278 11.2257C5.95869 11.2312 5.73905 11.4767 5.75013 11.7623C5.7612 12.0452 5.98269 12.2524 6.28539 12.2565C6.55579 12.2602 6.82526 12.2575 7.0952 12.2575ZM7.08782 14.4677C7.35775 14.4677 7.62769 14.47 7.89763 14.4673C8.21186 14.464 8.43612 14.2559 8.4435 13.9661C8.45135 13.6736 8.2234 13.4383 7.90686 13.4341C7.36744 13.4272 6.82757 13.4272 6.28769 13.4341C5.97161 13.4383 5.7432 13.6731 5.75059 13.9657C5.75751 14.255 5.98223 14.464 6.29554 14.4673C6.55948 14.47 6.82388 14.4677 7.08782 14.4677Z" fill="#ED1C24"></path><path d="M13.4777 11.4375C13.4777 12.3839 13.4777 13.3137 13.4777 14.2522C12.5382 14.2522 11.608 14.2522 10.6662 14.2522C10.6662 13.3151 10.6662 12.3807 10.6662 11.4375C11.6034 11.4375 12.5332 11.4375 13.4777 11.4375Z" fill="#ED1C24"></path></svg>