<?xml version="1.0" standalone="no"?>
<!DOCTYPE svg PUBLIC "-//W3C//DTD SVG 1.0//EN" "http://www.w3.org/TR/2001/REC-SVG-20010904/DTD/svg10.dtd">
<svg xmlns="http://www.w3.org/2000/svg" xmlns:xlink="http://www.w3.org/1999/xlink" id="body_1" width="72" height="54">

<g transform="matrix(0.054 0 0 0.054 9.000002 -0)">
	<g>
        <path d="M758.8 653.7C 711.89996 653.7 669.39996 673 638.89996 704.10004L638.89996 704.10004L374.2 551.4C 381.30002 533.60004 385.2 514.2 385.2 493.90002C 385.2 476.80002 382.40002 460.40002 377.30002 445.00003L377.30002 445.00003L626 279.1C 654 305.80002 691.9 322.2 733.5 322.2C 819.6 322.2 889.6 252.20001 889.6 166.1C 889.6 80 819.6 10 733.6 10C 647.5 10 577.5 80 577.5 166.1C 577.5 183.20001 580.3 199.8 585.4 215.20001L585.4 215.20001L336.8 381.1C 308.8 354.30002 270.8 337.9 229.09999 337.9C 143 337.9 72.999985 407.9 72.999985 494C 72.999985 580.1 142.99998 650.1 229.09999 650.1C 267.4 650.1 302.5 636.19995 329.69998 613.19995L329.69998 613.19995L599.19995 768.69995C 593.6 785.39996 590.6 803.2999 590.6 821.89996C 590.6 914.6 666 990 758.69995 990C 851.39996 990 926.7999 914.6 926.7999 821.9C 926.9 729.1 851.5 653.7 758.8 653.7zM733.6 95.1C 772.69995 95.1 804.5 126.899994 804.5 166.1C 804.5 205.20001 772.7 237 733.6 237C 694.5 237 662.69995 205.2 662.69995 166.1C 662.6 127 694.4 95.1 733.6 95.1zM229.1 564.9C 190 564.9 158.20001 533.10004 158.20001 494.00003C 158.20001 454.90002 190.00002 423.10004 229.1 423.10004C 268.2 423.10004 300 454.90002 300 494.00003C 300.1 533.1 268.2 564.9 229.1 564.9zM758.8 905.9C 712.39996 905.9 674.7 868.2 674.7 821.80005C 674.7 775.4 712.4 737.7001 758.8 737.7001C 805.2 737.7001 842.89996 775.4001 842.89996 821.80005C 842.9 868.2 805.1 905.9 758.8 905.9z" stroke="none" fill="#000000" fill-rule="nonzero" />
	</g>
</g>
</svg>